<svg
   xmlns="http://www.w3.org/2000/svg"
   width="1000"
   height="500"
   viewBox="0 0 264.58333 132.29167"
   version="1.1">
  <g>
    <path
       fill="#F5C518"
       d="M 16.536452,0 H 248.04686 c 9.16119,0 16.53645,7.3752652 16.53645,16.536452 V 115.7552 c 0,9.1612 -7.37526,16.53646 -16.53645,16.53646 H 16.536452 C 7.375265,132.29166 0,124.9164 0,115.7552 V 16.536452 C 0,7.3752652 7.375265,0 16.536452,0 Z" />
    <polygon
       points="5,18 5,0 0,0 0,18"
       transform="matrix(4.1341143,0,0,4.1341143,33.07292,28.938814)" />
    <path
       d="M 97.8649,28.938814 93.238682,63.70039 90.364307,44.793235 C 89.53087,38.737048 88.731526,33.452235 87.966151,28.938814 H 62.011715 V 103.35287 H 79.54712 l 0.06875,-49.138886 7.381547,49.138886 h 12.483968 l 7.007355,-50.222105 0.0516,50.222105 h 17.48438 V 28.938814 Z" />
    <path
       d="M 132.29167,103.35287 V 28.938814 h 32.26493 c 7.29586,0 13.21033,5.870218 13.21033,13.132452 v 48.149153 c 0,7.252863 -5.90492,13.132451 -13.21033,13.132451 z m 24.11118,-61.021495 c -0.81984,-0.443125 -2.38842,-0.656562 -4.66989,-0.656562 v 48.827044 c 3.01225,0 4.86595,-0.541563 5.56108,-1.674062 0.69516,-1.116094 1.05156,-4.135938 1.05156,-9.0925 V 50.882203 c 0,-3.364562 -0.125,-5.514593 -0.35656,-6.466515 -0.23172,-0.951875 -0.74859,-1.641234 -1.58633,-2.084375 z" />
    <path
       d="m 216.75124,47.570688 h 1.32125 c 7.42153,0 13.43787,5.811796 13.43787,12.972889 v 29.836405 c 0,7.16473 -6.01439,12.972888 -13.43787,12.972888 h -1.32125 c -4.54109,0 -8.55609,-2.17594 -10.98864,-5.505518 l -1.19047,4.549608 H 186.03519 V 28.938814 h 19.77896 v 23.897389 c 2.55559,-3.184828 6.49396,-5.265515 10.93714,-5.265515 z m -4.23473,36.286591 V 66.224718 c 0,-2.913469 -0.18704,-4.825437 -0.57672,-5.705547 -0.38969,-0.880156 -1.94505,-1.445156 -3.03607,-1.445156 -1.09109,0 -2.77353,0.459219 -3.10082,1.233125 v 5.917609 18.197155 5.73275 c 0.37406,0.849687 1.97864,1.322658 3.10082,1.322658 1.12219,0 2.75552,-0.457658 3.09841,-1.322658 0.34281,-0.865 0.51438,-2.974172 0.51438,-6.297344 z" />
  </g>
</svg>